<svg width="364" height="69" viewBox="0 0 364 69" fill="none" xmlns="http://www.w3.org/2000/svg">
<mask id="mask0" mask-type="alpha" maskUnits="userSpaceOnUse" x="0" y="0" width="364" height="69">
<rect width="364" height="69" fill="#C4C4C4"/>
</mask>
<g mask="url(#mask0)">
<mask id="mask1" mask-type="alpha" maskUnits="userSpaceOnUse" x="181" y="-22" width="185" height="105">
<rect x="181.949" y="-21.1746" width="183.649" height="103.408" fill="#C4C4C4"/>
</mask>
<g mask="url(#mask1)">
<path d="M-0.00463867 68.6721H344.308C347.91 68.6721 351.47 67.8902 354.741 66.3805L356.451 65.5915C359.25 64.2995 361.48 62.0288 362.722 59.2068C363.501 57.437 363.903 55.5244 363.903 53.5908V27.9223C363.903 23.5035 362.89 19.1436 360.942 15.1775L360.283 13.8367C357.548 8.27 352.605 4.10512 346.655 2.35511C343.291 1.36562 339.802 0.863224 336.295 0.863224H245.207C243.534 0.863224 241.863 0.981955 240.207 1.21852C235.342 1.91361 230.709 3.74801 226.687 6.57234L226.272 6.86361C221.81 9.99663 217.932 13.8886 214.815 18.3623L213.153 20.7491C206.171 30.7714 194.729 36.7454 182.514 36.7454H182.235C169.206 36.7454 157.073 30.1083 150.046 19.1359C146.862 14.1643 142.694 9.89671 137.8 6.59563L137.245 6.2217C134.481 4.35721 131.429 2.95847 128.212 2.08109C125.248 1.27279 122.19 0.863224 119.118 0.863224H-0.00463867V68.6721Z" fill="white"/>
</g>
<mask id="mask2" mask-type="alpha" maskUnits="userSpaceOnUse" x="-2" y="-22" width="184" height="105">
<rect width="183.649" height="103.408" transform="matrix(-1 0 0 1 181.949 -21.1746)" fill="#C4C4C4"/>
</mask>
<g mask="url(#mask2)">
<path d="M363.903 68.6721H19.5904C15.9878 68.6721 12.4281 67.8902 9.15704 66.3805L7.44748 65.5915C4.64822 64.2995 2.41779 62.0288 1.17612 59.2068C0.397369 57.437 -0.00476074 55.5244 -0.00476074 53.5908V27.9223C-0.00476074 23.5035 1.00827 19.1436 2.95651 15.1775L3.6152 13.8367C6.3497 8.27 11.2932 4.10512 17.2432 2.35511C20.6075 1.36562 24.0962 0.863224 27.6029 0.863224H118.691C120.364 0.863224 122.035 0.981955 123.691 1.21852C128.556 1.91361 133.189 3.74801 137.211 6.57234L137.626 6.86361C142.089 9.99663 145.966 13.8886 149.083 18.3623L150.745 20.7491C157.727 30.7714 169.169 36.7454 181.384 36.7454H181.663C194.693 36.7454 206.825 30.1083 213.852 19.1359C217.036 14.1643 221.204 9.89671 226.098 6.59563L226.653 6.2217C229.418 4.35721 232.469 2.95847 235.686 2.08109C238.65 1.27279 241.708 0.863224 244.78 0.863224H363.903V68.6721Z" fill="white"/>
</g>
</g>
</svg>
